grf
version=1
nRows=15
nColumns=37
inDegrees=no
endheader
time	ground_force_1_vx	ground_force_1_vy	ground_force_1_vz	ground_force_1_px	ground_force_1_py	ground_force_1_pz	ground_moment_1_mx	ground_moment_1_my	ground_moment_1_mz	ground_force_2_vx	ground_force_2_vy	ground_force_2_vz	ground_force_2_px	ground_force_2_py	ground_force_2_pz	ground_moment_2_mx	ground_moment_2_my	ground_moment_2_mz	ground_force_3_vx	ground_force_3_vy	ground_force_3_vz	ground_force_3_px	ground_force_3_py	ground_force_3_pz	ground_moment_3_mx	ground_moment_3_my	ground_moment_3_mz	ground_force_4_vx	ground_force_4_vy	ground_force_4_vz	ground_force_4_px	ground_force_4_py	ground_force_4_pz	ground_moment_4_mx	ground_moment_4_my	ground_moment_4_mz
      0.00000000	      0.00000000	     -0.00000000	      0.00000000	      0.00000000	      0.00000000	      0.00000000	      0.00000000	      0.00000000	      0.00000000	    -23.14109421	     27.68838692	   -391.09371948	   -256.08146881	   -991.07935665	      0.00000000	      0.00000000	      0.00000000	   4472.51896610	     32.29523279	    -21.61685654	   -394.06988525	   -362.38854167	   -737.64321594	      0.00000000	     -0.00000000	     -0.00000000	   -831.53842270	      0.00000000	     -0.00000000	      0.00000000	      0.00000000	      0.00000000	      0.00000000	      0.00000000	      0.00000000	      0.00000000
      0.01000000	      0.00000000	     -0.00000000	      0.00000000	      0.00000000	      0.00000000	      0.00000000	      0.00000000	      0.00000000	      0.00000000	    -23.08275032	     28.04497528	   -392.22659302	   -254.17704270	   -989.52957697	      0.00000000	      0.00000000	      0.00000000	   4377.28879588	     31.97551540	    -21.40472310	   -391.87014771	   -362.72586156	   -736.71345297	      0.00000000	      0.00000000	     -0.00000000	   -752.96161366	      0.00000000	     -0.00000000	      0.00000000	      0.00000000	      0.00000000	      0.00000000	      0.00000000	      0.00000000	      0.00000000
      0.02000000	      0.00000000	     -0.00000000	      0.00000000	      0.00000000	      0.00000000	      0.00000000	      0.00000000	      0.00000000	      0.00000000	    -23.43526268	     28.14602852	   -395.77612305	   -253.56420798	   -990.25059728	      0.00000000	      0.00000000	      0.00000000	   4322.60165611	     31.28806120	    -21.20127761	   -388.48400879	   -362.22707268	   -737.29954544	      0.00000000	      0.00000000	     -0.00000000	   -760.33920179	      0.00000000	     -0.00000000	      0.00000000	      0.00000000	      0.00000000	      0.00000000	      0.00000000	      0.00000000	      0.00000000
      0.03000000	      0.00000000	     -0.00000000	      0.00000000	      0.00000000	      0.00000000	      0.00000000	      0.00000000	      0.00000000	      0.00000000	    -23.81544876	     28.40538979	   -398.47991943	   -253.26129464	   -990.62832756	      0.00000000	      0.00000000	      0.00000000	   4467.77313903	     29.92640115	    -21.63106417	   -387.08767700	   -361.54270267	   -736.77776415	      0.00000000	     -0.00000000	     -0.00000000	   -682.47618803	      0.00000000	     -0.00000000	      0.00000000	      0.00000000	      0.00000000	      0.00000000	      0.00000000	      0.00000000	      0.00000000
      0.04000000	      0.00000000	     -0.00000000	      0.00000000	      0.00000000	      0.00000000	      0.00000000	      0.00000000	      0.00000000	      0.00000000	    -23.96670341	     28.57284927	   -401.07592773	   -252.21392166	   -991.27408210	      0.00000000	      0.00000000	      0.00000000	   4410.22588884	     29.51358416	    -21.52350684	   -386.05502319	   -360.56806395	   -735.37912529	      0.00000000	      0.00000000	     -0.00000000	   -597.22336164	      0.00000000	     -0.00000000	      0.00000000	      0.00000000	      0.00000000	      0.00000000	      0.00000000	      0.00000000	      0.00000000
      0.05000000	      0.00000000	     -0.00000000	      0.00000000	      0.00000000	      0.00000000	      0.00000000	      0.00000000	      0.00000000	      0.00000000	    -24.28944016	     28.40510941	   -402.48983765	   -251.72766320	   -992.09714957	      0.00000000	      0.00000000	      0.00000000	   4308.24527101	     29.06640815	    -21.84605090	   -383.61035156	   -360.09813181	   -736.66400369	      0.00000000	      0.00000000	     -0.00000000	   -789.03083550	      0.00000000	     -0.00000000	      0.00000000	      0.00000000	      0.00000000	      0.00000000	      0.00000000	      0.00000000	      0.00000000
      0.06000000	      0.00000000	     -0.00000000	      0.00000000	      0.00000000	      0.00000000	      0.00000000	      0.00000000	      0.00000000	      0.00000000	    -24.11762047	     28.67550278	   -401.84658813	   -251.14168577	   -990.44289960	      0.00000000	      0.00000000	      0.00000000	   4416.25232938	     28.07754705	    -22.14148004	   -384.98065186	   -358.56697488	   -734.95000901	      0.00000000	      0.00000000	     -0.00000000	   -612.05346865	      0.00000000	     -0.00000000	      0.00000000	      0.00000000	      0.00000000	      0.00000000	      0.00000000	      0.00000000	      0.00000000
      0.07000000	      0.00000000	     -0.00000000	      0.00000000	      0.00000000	      0.00000000	      0.00000000	      0.00000000	      0.00000000	      0.00000000	    -24.56068611	     28.42968941	   -403.67315674	   -250.82539806	   -992.42002767	      0.00000000	      0.00000000	      0.00000000	   4308.04146719	     27.76342196	    -22.40629630	   -385.80053711	   -356.72478107	   -734.56092032	      0.00000000	      0.00000000	     -0.00000000	   -763.42012510	      0.00000000	     -0.00000000	      0.00000000	      0.00000000	      0.00000000	      0.00000000	      0.00000000	      0.00000000	      0.00000000
      0.08000000	      0.00000000	     -0.00000000	      0.00000000	      0.00000000	      0.00000000	      0.00000000	      0.00000000	      0.00000000	      0.00000000	    -24.55808640	     28.37408447	   -403.79519653	   -249.83312158	   -992.20285792	      0.00000000	      0.00000000	      0.00000000	   4425.31551706	     26.82118029	    -22.46124884	   -386.17297363	   -355.50623457	   -734.75423258	      0.00000000	      0.00000000	     -0.00000000	   -625.16930791	      0.00000000	     -0.00000000	      0.00000000	      0.00000000	      0.00000000	      0.00000000	      0.00000000	      0.00000000	      0.00000000
      0.09000000	      0.00000000	     -0.00000000	      0.00000000	      0.00000000	      0.00000000	      0.00000000	      0.00000000	      0.00000000	      0.00000000	    -25.14978027	     28.69998932	   -403.92681885	   -249.10605888	   -991.21878601	      0.00000000	      0.00000000	      0.00000000	   4210.75700973	     26.58811558	    -23.08494800	   -385.83358765	   -354.28816916	   -735.25880426	      0.00000000	      0.00000000	     -0.00000000	   -607.74826908	      0.00000000	     -0.00000000	      0.00000000	      0.00000000	      0.00000000	      0.00000000	      0.00000000	      0.00000000	      0.00000000
      0.10000000	      0.00000000	     -0.00000000	      0.00000000	      0.00000000	      0.00000000	      0.00000000	      0.00000000	      0.00000000	      0.00000000	    -25.36628914	     28.81959724	   -405.76733398	   -249.20428899	   -992.61816774	      0.00000000	      0.00000000	      0.00000000	   4262.12440336	     26.84897985	    -22.90557142	   -387.55828857	   -352.89747120	   -735.09126457	      0.00000000	      0.00000000	     -0.00000000	   -616.33669734	      0.00000000	     -0.00000000	      0.00000000	      0.00000000	      0.00000000	      0.00000000	      0.00000000	      0.00000000	      0.00000000
      0.11000000	      0.00000000	     -0.00000000	      0.00000000	      0.00000000	      0.00000000	      0.00000000	      0.00000000	      0.00000000	      0.00000000	    -25.72306633	     28.69788551	   -405.07238770	   -247.63259002	   -992.61822205	      0.00000000	      0.00000000	      0.00000000	   4338.50930261	     26.58516294	    -23.82115215	   -389.54275513	   -351.91790573	   -733.79464183	      0.00000000	      0.00000000	     -0.00000000	   -650.05266972	      0.00000000	     -0.00000000	      0.00000000	      0.00000000	      0.00000000	      0.00000000	      0.00000000	      0.00000000	      0.00000000
      0.12000000	      0.00000000	     -0.00000000	      0.00000000	      0.00000000	      0.00000000	      0.00000000	      0.00000000	      0.00000000	      0.00000000	    -26.22407341	     28.55016708	   -402.73025513	   -246.23322786	   -991.01389260	      0.00000000	      0.00000000	      0.00000000	   4307.40244777	     26.55683304	    -24.43293994	   -390.12145996	   -349.70652962	   -734.01380721	      0.00000000	      0.00000000	     -0.00000000	   -596.12209531	      0.00000000	     -0.00000000	      0.00000000	      0.00000000	      0.00000000	      0.00000000	      0.00000000	      0.00000000	      0.00000000
      0.13000000	      0.00000000	     -0.00000000	      0.00000000	      0.00000000	      0.00000000	      0.00000000	      0.00000000	      0.00000000	      0.00000000	    -26.52750206	     28.04580688	   -400.85925293	   -245.88403634	   -990.42089975	      0.00000000	      0.00000000	      0.00000000	   4181.95076208	     25.84684730	    -24.52520596	   -390.93103027	   -348.02279193	   -733.27448794	      0.00000000	      0.00000000	     -0.00000000	   -488.78106175	      0.00000000	     -0.00000000	      0.00000000	      0.00000000	      0.00000000	      0.00000000	      0.00000000	      0.00000000	      0.00000000
      0.14000000	      0.00000000	     -0.00000000	      0.00000000	      0.00000000	      0.00000000	      0.00000000	      0.00000000	      0.00000000	      0.00000000	    -26.99906540	     27.69083405	   -399.79382324	   -244.68344065	   -991.36185400	      0.00000000	      0.00000000	      0.00000000	   4237.65115176	     25.36964772	    -24.82002289	   -392.55853271	   -345.12460510	   -732.81351333	      0.00000000	      0.00000000	     -0.00000000	   -432.23377451	      0.00000000	     -0.00000000	      0.00000000	      0.00000000	      0.00000000	      0.00000000	      0.00000000	      0.00000000	      0.00000000
